<?xml version="1.0" encoding="UTF-8"?>
<svg id="SVGDoc" width="20" height="12" xmlns="http://www.w3.org/2000/svg" version="1.1" xmlns:xlink="http://www.w3.org/1999/xlink" xmlns:avocode="https://avocode.com/" viewBox="0 0 20 12"><defs></defs><desc>Generated with Avocode.</desc><g><g><title>Menu Icon</title><path d="M0.99991,-0.00008h18.00003c0.55227,0 1.00002,0.44767 1.00002,1.00004c0,0.55217 -0.44775,0.99984 -1.00002,0.99984h-18.00003c-0.55227,0 -0.99993,-0.44767 -0.99993,-0.99984c0,-0.55237 0.44765,-1.00004 0.99993,-1.00004zM0.99991,9.99992h18.00003c0.55227,0 1.00002,0.44767 1.00002,1.00004c0,0.55217 -0.44775,0.99984 -1.00002,0.99984h-18.00003c-0.55227,0 -0.99993,-0.44767 -0.99993,-0.99984c0,-0.55237 0.44765,-1.00004 0.99993,-1.00004zM0.99991,4.99992h18.00003c0.55227,0 1.00002,0.44767 1.00002,1.00004c0,0.55217 -0.44775,0.99984 -1.00002,0.99984h-18.00003c-0.55227,0 -0.99993,-0.44767 -0.99993,-0.99984c0,-0.55237 0.44765,-1.00004 0.99993,-1.00004z" fill="#1b1c1e" fill-opacity="1"></path></g></g></svg>